<?xml version="1.0" standalone="no"?>
<!DOCTYPE svg PUBLIC "-//W3C//DTD SVG 20010904//EN"
 "http://www.w3.org/TR/2001/REC-SVG-20010904/DTD/svg10.dtd">
<svg version="1.0" xmlns="http://www.w3.org/2000/svg"
 width="326.000000pt" height="326.000000pt" viewBox="0 0 326.000000 326.000000"
 preserveAspectRatio="xMidYMid meet">
<metadata>
Created by potrace 1.11, written by Peter Selinger 2001-2013
</metadata>
<g transform="translate(0.000000,326.000000) scale(0.100000,-0.100000)"
fill="#000000" stroke="none">
<path d="M1500 3034 c-102 -12 -235 -40 -315 -66 -398 -128 -723 -435 -874
-823 -49 -127 -87 -273 -73 -287 13 -13 27 14 35 67 4 22 21 83 38 135 159
480 566 835 1063 927 126 23 371 23 491 -1 441 -86 813 -373 1002 -772 42 -88
63 -115 63 -78 0 9 -17 53 -39 98 -188 403 -580 703 -1017 781 -89 15 -309 27
-374 19z"/>
<path d="M2347 2123 c-4 -3 -7 -17 -7 -29 0 -13 -20 -105 -45 -206 -54 -216
-63 -285 -42 -312 18 -25 47 -15 47 16 0 42 41 172 70 224 65 113 105 110 69
-6 -28 -94 -30 -171 -5 -199 11 -12 23 -21 27 -21 17 0 71 55 91 94 l21 41 11
-32 c36 -105 142 -81 184 41 13 38 24 52 49 62 18 8 34 14 37 14 2 0 -7 -42
-20 -92 -52 -206 -53 -284 -2 -276 16 2 21 12 24 42 5 53 102 402 125 447 22
43 43 62 65 57 44 -8 36 -142 -14 -233 -27 -49 -52 -69 -52 -41 0 20 -19 31
-32 18 -7 -7 -6 -17 1 -31 23 -43 143 -21 205 37 28 26 96 153 96 179 0 26
-16 12 -29 -24 -25 -71 -111 -186 -128 -170 -2 2 9 25 23 52 39 68 46 178 14
218 -17 22 -30 27 -63 27 -31 0 -48 -7 -70 -27 -20 -19 -31 -24 -34 -15 -7 18
-39 33 -57 26 -10 -4 -16 -18 -16 -36 0 -52 -22 -122 -44 -140 -25 -21 -54
-23 -53 -5 1 39 -4 48 -25 45 -28 -4 -38 -53 -14 -71 13 -11 11 -20 -14 -74
-33 -72 -62 -84 -81 -35 -27 68 37 262 86 262 7 0 12 -7 11 -16 0 -9 5 -19 12
-21 19 -7 15 45 -6 56 -55 29 -137 -40 -172 -145 -43 -130 -94 -213 -117 -190
-4 4 3 46 15 95 26 104 28 149 6 179 -21 30 -46 28 -84 -8 -18 -17 -34 -29
-36 -28 -1 2 6 35 17 73 25 90 28 163 9 175 -18 11 -44 13 -53 3z"/>
<path d="M1974 2016 c-43 -19 -60 -70 -45 -132 6 -24 39 -101 72 -170 99 -203
93 -288 -24 -348 -47 -24 -62 -27 -102 -22 -68 11 -106 49 -112 112 -7 64 15
117 59 144 40 24 40 24 68 2 16 -13 23 -30 24 -58 1 -36 3 -39 30 -39 37 0 54
25 41 61 -25 69 -136 95 -190 44 -39 -36 -55 -73 -56 -127 -1 -61 12 -93 50
-126 75 -63 253 -43 337 38 79 75 72 158 -28 370 -89 188 -91 268 -6 218 46
-27 60 -58 54 -120 l-5 -53 30 0 c59 0 62 83 6 147 -57 64 -137 87 -203 59z"/>
<path d="M1047 1913 c-4 -3 -7 -18 -7 -31 0 -14 -18 -98 -41 -186 -42 -169
-56 -195 -107 -196 -20 0 -22 4 -16 23 84 262 92 373 26 365 -22 -2 -28 -9
-30 -33 -4 -38 -69 -301 -83 -336 -6 -15 -22 -31 -35 -38 -33 -15 -34 -14 -34
12 0 36 -16 54 -37 41 -24 -15 -28 -48 -8 -68 15 -15 14 -21 -10 -75 -29 -64
-50 -80 -73 -57 -38 37 7 239 62 278 15 10 26 0 19 -17 -3 -10 2 -15 16 -15
25 0 27 22 5 44 -19 20 -47 20 -84 1 -44 -23 -77 -72 -106 -161 -94 -282 -251
-438 -342 -341 -31 34 -42 71 -42 151 0 87 29 204 72 293 35 71 109 158 130
151 41 -14 45 -99 7 -171 -23 -45 -18 -57 21 -57 80 0 94 171 19 234 -57 48
-139 30 -209 -46 -45 -49 -118 -203 -135 -283 -36 -173 -8 -292 79 -335 115
-55 248 32 350 230 43 82 45 84 55 59 12 -32 47 -59 77 -59 42 0 71 35 124
149 6 14 57 37 65 30 2 -2 -8 -47 -21 -99 -30 -120 -40 -220 -25 -247 9 -17
16 -20 38 -14 56 14 112 169 113 308 0 59 1 61 31 72 41 14 42 14 34 -6 -14
-38 -55 -245 -55 -281 0 -21 6 -47 14 -58 14 -18 17 -18 42 -4 54 29 104 179
104 309 0 47 3 60 18 64 9 2 25 8 35 12 14 6 17 2 17 -19 0 -45 27 -95 57
-107 48 -18 98 4 146 66 l42 54 15 -32 c37 -78 126 -70 192 18 39 51 86 161
74 172 -4 4 -10 -4 -13 -17 -10 -37 -61 -132 -86 -159 -12 -13 -33 -27 -47
-33 -31 -12 -50 11 -49 61 0 30 7 41 41 66 63 46 103 139 72 169 -38 38 -113
0 -156 -79 -15 -28 -28 -57 -28 -66 -1 -50 -105 -199 -140 -199 -20 0 -40 34
-39 68 0 32 6 41 42 67 54 39 94 116 81 153 -9 23 -15 27 -48 26 -62 -2 -104
-47 -151 -164 -6 -15 -24 -29 -45 -36 -19 -7 -36 -11 -38 -9 -1 1 13 56 32
121 57 198 57 274 2 274 -12 0 -26 -3 -29 -7z m506 -172 c9 -36 -39 -117 -85
-142 -16 -9 -16 -6 -4 33 21 68 33 94 51 111 21 22 32 21 38 -2z m-249 -30
c13 -21 -10 -75 -50 -119 -37 -40 -43 -44 -44 -25 0 26 36 112 57 136 18 19
29 22 37 8z m-275 -334 c-20 -113 -57 -210 -82 -215 -24 -5 -20 14 36 196 28
92 44 129 51 122 7 -7 6 -39 -5 -103z m-163 14 c-14 -120 -64 -261 -93 -261
-19 0 -11 39 39 198 21 68 38 126 38 129 0 2 5 1 11 -3 8 -4 9 -25 5 -63z"/>
<path d="M2986 1428 c-2 -7 -15 -60 -29 -118 -62 -264 -197 -495 -399 -685
-134 -126 -287 -221 -468 -288 -161 -60 -280 -81 -470 -81 -240 0 -412 39
-612 140 -261 130 -422 286 -605 583 -10 16 -18 20 -25 13 -12 -12 30 -92 96
-182 212 -294 529 -495 892 -566 122 -24 375 -24 504 -1 464 86 856 398 1042
830 66 153 118 367 89 367 -6 0 -13 -6 -15 -12z"/>
<path d="M1518 975 c5 -97 22 -98 22 0 0 53 -4 75 -12 75 -10 0 -12 -20 -10
-75z"/>
<path d="M1617 1040 c24 -10 24 -10 -11 -117 -4 -13 -3 -23 2 -23 5 0 12 12
15 28 4 15 13 48 21 75 l15 47 -32 -1 c-29 0 -30 -1 -10 -9z"/>
<path d="M1687 1038 c-2 -7 -1 -22 3 -33 4 -10 2 -31 -3 -46 -14 -36 -3 -59
27 -59 19 0 27 7 32 26 4 14 2 30 -4 36 -5 5 -7 27 -5 49 5 36 4 39 -20 39
-13 0 -27 -6 -30 -12z m41 -26 c2 -15 -2 -22 -12 -22 -11 0 -16 9 -16 26 0 31
23 28 28 -4z m2 -72 c0 -20 -5 -30 -15 -30 -10 0 -15 10 -15 30 0 20 5 30 15
30 10 0 15 -10 15 -30z"/>
<path d="M1794 1003 c-11 -27 -20 -51 -22 -55 -2 -5 8 -8 22 -8 20 0 26 -5 27
-22 1 -22 1 -22 8 2 9 30 2 130 -9 130 -4 0 -16 -21 -26 -47z m26 -23 c0 -11
-7 -20 -15 -20 -17 0 -18 2 -9 24 9 23 24 20 24 -4z"/>
</g>
</svg>
